<svg version="1.1" xmlns="http://www.w3.org/2000/svg" xmlns:xlink="http://www.w3.org/1999/xlink" width="159" height="145.81815" viewBox="0,0,159,145.81815"><g transform="translate(-174.75,-112.43185)"><g data-paper-data="{&quot;isPaintingLayer&quot;:true}" fill="none" fill-rule="nonzero" stroke-width="5" stroke-linecap="round" stroke-linejoin="miter" stroke-miterlimit="10" stroke-dasharray="" stroke-dashoffset="0" style="mix-blend-mode: normal"><path d="M211.75,152.75l60.5,6l-36,59.5z" stroke="none"/><path d="M176.75,147.25l134,17" stroke="none"/><path d="M174.75,137.75l149,13.5l-97,97z" stroke="none"/><path d="M216.75,157.75l60.5,6l-36,59.5z" stroke="none"/><path d="M181.75,152.25l134,17" stroke="none"/><path d="M179.75,142.75l149,13.5l-97,97z" stroke="none"/><path d="M216.75,157.75l60.5,6l-36,59.5z" stroke="none"/><path d="M181.75,152.25l134,17" stroke="none"/><path d="M179.75,142.75c0,0 70.67386,6.40333 98.05579,8.88425c19.73672,1.78823 50.94421,4.61575 50.94421,4.61575l-97,97z" stroke="none"/><path d="M297.75,216.25l-117,-5l63,-94z" stroke="#ffffff"/><path d="M221.75,162.75l60.5,6l-36,59.5z" stroke="none"/><path d="M186.75,157.25" stroke="none"/><path d="M184.75,147.75l149,13.5l-97,97z" stroke="none"/><path d="M303.25,148.75l-117,-5l49.5,102.5z" stroke="#ffffff"/></g></g></svg>