<svg version="1.1" xmlns="http://www.w3.org/2000/svg" xmlns:xlink="http://www.w3.org/1999/xlink" width="47.03282" height="18.23913" viewBox="0,0,47.03282,18.23913"><g transform="translate(-216.48359,-170.88043)"><g data-paper-data="{&quot;isPaintingLayer&quot;:true}" fill-rule="nonzero" stroke="none" stroke-width="1" stroke-linecap="butt" stroke-linejoin="miter" stroke-miterlimit="10" stroke-dasharray="" stroke-dashoffset="0" style="mix-blend-mode: normal"><g><path d="M218.95297,174.92991c0,0 29.34841,-4.66483 33.56533,-3.98102c0,0 7.47799,3.40143 10.99811,9.81537c0,0 -6.15428,5.60401 -11.86092,8.33058c0,0 -30.31198,-5.49398 -32.46975,-6.63593c0,0 -2.07028,-2.866 -2.51605,-4.82592c-0.08687,0.1116 0.79479,-2.5176 2.28328,-2.70308z" fill="#8644b3"/><path d="M263.31794,180.78899l-17.14033,-3.30591c1.465,-3.60885 6.25382,-6.4226 6.25382,-6.4226c0,0 7.47799,3.40143 10.88651,9.72851z" fill="#ea8be5"/><path d="M263.31794,180.78899l-17.14033,-3.30591c1.465,-3.60885 6.25382,-6.4226 6.25382,-6.4226c0,0 7.47799,3.40143 10.88651,9.72851z" fill="#ea8be5"/><path d="M250.73766,189.00766c-2.66444,-6.01671 -4.57242,-11.62381 -4.57242,-11.62381l17.1527,3.40514c0.09923,-0.01237 0.1116,0.08687 0.1116,0.08687c0,0 -6.15428,5.60401 -11.87329,8.23135c0,0 -0.19847,0.02473 -0.81859,-0.09954z" fill="#ad59c2"/><path d="M246.07838,177.49544l-29.59479,0.26151c0,0 0.99325,-2.54233 2.38251,-2.71545c0,0 29.34841,-4.66483 33.56533,-3.98102z" fill="#ad59c2"/><path d="M246.16525,177.38385c0,0 -1.60009,0.09861 -4.0064,0.19692c-1.20316,0.04915 -2.61714,0.0238 -4.118,0.11005c-1.51322,-0.01298 -3.1133,0.08563 -4.62652,0.07264c-1.61245,-0.00062 -3.2249,-0.00124 -4.63889,-0.02659c-1.51322,-0.01298 -2.92721,-0.03834 -4.03113,-0.00155c-2.33181,-0.11253 -3.94426,-0.11315 -3.94426,-0.11315c0,0 1.60009,-0.09861 4.0064,-0.19692c1.20316,-0.04915 2.61714,-0.0238 4.118,-0.11005c1.51322,0.01298 3.1133,-0.08563 4.62652,-0.07264c1.61245,0.00062 3.2249,0.00124 4.63889,0.02659c1.51322,0.01298 2.92721,0.03834 4.03113,0.00155c2.43104,0.10016 3.94426,0.11315 3.94426,0.11315z" fill="#ea8be5"/><path d="M219.89459,177.63423l-3.32414,0.01113c0,0 0.99325,-2.54233 2.38251,-2.71545c0,0 0.49554,1.55062 0.94163,2.70432z" fill="#a546bd"/><path d="M219.08651,182.47127c0,0 -2.08264,-2.96523 -2.51605,-4.82592l3.32414,-0.01113c0.17342,0.58303 0.33448,1.06683 0.35921,1.26529c0.19816,0.7815 -1.1673,3.57175 -1.1673,3.57175z" fill="#7c36ab"/><path d="M216.58282,177.74458c0.30975,0.86836 0.71874,1.72436 1.11536,2.48112c0.39662,0.75676 0.89247,1.50116 1.57443,2.1216l-0.1116,-0.08687c2.05884,0.34809 4.13005,0.79541 6.20126,1.24273c2.07121,0.44732 4.13005,0.79541 6.10203,1.2551c4.14242,0.89464 8.1856,1.80165 12.24115,2.80789c-4.11769,-0.69618 -8.24774,-1.49159 -12.39015,-2.38623c-2.07121,-0.44732 -4.14242,-0.89464 -6.10203,-1.2551c-2.07121,-0.44732 -4.14242,-0.89464 -6.11439,-1.35433c-0.59509,-0.73203 -1.09094,-1.47643 -1.49992,-2.33243c-0.50822,-0.84363 -0.80561,-1.61276 -1.01613,-2.49349z" fill="#6b348f"/><path d="M252.41907,170.96125c0,0 0.96574,4.51524 1.38616,7.88914l-7.63998,-1.46655c1.57659,-3.52198 6.25382,-6.4226 6.25382,-6.4226z" fill="#e17de3"/><path d="M253.92795,182.26139c-0.18641,0.93019 -1.26684,4.39034 -2.08636,6.70948c-0.09923,0.01237 -0.28533,0.13633 -0.38456,0.14869c0,0 -0.21083,-0.0745 -0.71936,-0.11191c-2.66444,-6.01671 -4.57242,-11.62381 -4.57242,-11.62381l7.63998,1.46655c0.19785,1.58772 0.37096,2.97698 0.12272,3.411z" fill="#9b4dae"/><path d="M250.8369,188.99529c0,0 -0.37189,-0.5583 -0.76851,-1.31506c-0.40899,-0.856 -0.94193,-1.89809 -1.48725,-3.03942c-0.44608,-1.15369 -0.89216,-2.30739 -1.20192,-3.17575c-0.30975,-0.86836 -0.38395,-1.46376 -0.38395,-1.46376c0,0 0.01237,0.09923 0.14869,0.38456c0.13633,0.28533 0.27266,0.57066 0.43372,1.05446c0.40899,0.856 0.8427,1.91046 1.38802,3.05179c0.44608,1.15369 0.9914,2.29502 1.30115,3.16339c0.39662,0.75676 0.57005,1.33979 0.57005,1.33979z" fill="#6b348f"/></g><path d="M263.31794,180.78899c0,0 -0.81859,-0.09954 -2.04648,-0.24886c-1.22789,-0.14931 -2.87743,-0.44763 -4.52698,-0.74595c-1.64955,-0.29832 -3.31146,-0.69587 -4.56408,-1.04365c-1.25262,-0.34778 -2.08357,-0.54655 -2.08357,-0.54655c0,0 0.81859,0.09954 2.04648,0.24886c1.32712,0.13695 3.0759,0.4229 4.62621,0.73358c1.64955,0.29832 3.31146,0.69587 4.56408,1.04365c1.24025,0.24855 1.98434,0.55892 1.98434,0.55892z" fill="#ffbcfc"/></g></g></svg>