<svg version="1.1" xmlns="http://www.w3.org/2000/svg" xmlns:xlink="http://www.w3.org/1999/xlink" width="64.60281" height="11.43642" viewBox="0,0,64.60281,11.43642"><g transform="translate(-207.63016,-174.32325)"><g data-paper-data="{&quot;isPaintingLayer&quot;:true}" fill-rule="nonzero" stroke-linecap="round" stroke-linejoin="miter" stroke-miterlimit="10" stroke-dasharray="" stroke-dashoffset="0" style="mix-blend-mode: normal"><path d="M210.2353,175.62256c-0.94562,1.12124 -1.5142,2.75144 -1.50565,4.25453c0.00776,1.27941 0.4443,2.86896 1.51339,3.61786c0.97118,0.67821 2.50592,0.09734 3.74691,-0.02495c0.99361,-0.09395 2.65075,0.42551 3.18079,-0.50073c0.66683,-1.18884 -0.40173,-2.77577 -0.36136,-4.16764c0.02887,-1.01955 1.47416,-2.34847 0.71583,-2.98634c-1.3028,-1.02646 -3.31841,-0.36012 -4.90841,-0.39921c-0.79559,-0.01949 -1.86669,-0.40411 -2.3815,0.20649z" fill="#ffffff" stroke="none" stroke-width="1"/><path d="M215.59024,175.98305c-1.05481,0.97924 -1.4212,2.62371 -1.48358,4.06277c-0.04978,1.14164 0.09947,2.83527 1.15492,3.3889c1.72296,0.90155 4.04411,0.60072 6.01829,0.228c0.48738,-0.08994 0.02631,-0.93835 0.10066,-1.43338c0.00556,-0.7488 0.00558,-1.50611 0.13711,-2.29642c0.21368,-1.28872 1.27595,-2.65581 0.75424,-3.85436c-0.40319,-0.9212 -1.77823,-0.90936 -2.70156,-0.89048c-1.38115,-0.0518 -3.0209,-0.09739 -3.98007,0.79498z" fill="#ffffff" stroke="none" stroke-width="1"/><path d="M261.18728,176.07854c-1.60116,0.43066 -4.30646,0.7492 -4.36552,2.40301c-0.10894,2.34107 1.94733,4.82102 4.10139,5.79287c1.5376,0.69388 3.23406,-1.1316 4.87658,-1.69751c0.97041,-0.40986 1.92355,-0.86681 2.96742,-1.23205c0.69969,-0.24602 1.41077,-0.32957 2.11307,-0.70808c0.19766,-0.10712 0.85024,-0.29117 0.24606,-0.62119c-2.41163,-1.31362 -5.00997,-2.31773 -7.56094,-3.31844c-0.73371,-0.2882 -1.5844,-0.82209 -2.37806,-0.61861z" fill="#ffffff" stroke="none" stroke-width="1"/><path d="M248.33851,175.76795c-8.49805,-0.09966 -17.02926,-0.18746 -25.59085,-0.25552c-2.14318,-0.01272 -1.32463,-0.23006 -1.867,0.0869c-0.75919,0.41074 -1.33856,1.1658 -1.69923,2.02187c-0.41246,0.95054 -0.55769,2.04286 -0.40524,3.10938c0.1337,1.02315 0.48869,2.17708 1.23205,2.96742c0.46064,0.46994 -0.22593,0.33451 1.9866,0.4276c8.70196,0.22025 17.47498,0.21209 26.19913,0.35274c3.66903,0.05918 7.27679,0.16237 10.88799,0.18068c0.93066,0.05517 1.19214,0.35552 1.50135,0.01979c0.29679,-0.33016 -0.12684,-0.89208 -0.11615,-1.3396c0.01122,-0.45866 -0.04893,-0.96902 0.18154,-1.36541c0.21902,-0.3762 0.75278,-0.45698 1.05826,-0.76659c0.32231,-0.32638 0.94503,-0.69229 0.80273,-1.11934c-0.18065,-0.5338 -1.05831,-0.64876 -1.59169,-1.0617c-0.26695,-0.16971 -0.69264,-0.27796 -0.80875,-0.67969c-0.08133,-0.36036 0.33172,-0.6745 0.43707,-1.01266c0.14736,-0.48666 1.51082,-1.26501 0.47922,-1.39122c-4.13651,-0.52493 -8.43867,-0.13091 -12.68702,-0.17465z" fill="#ffffff" stroke="#ffffff" stroke-width="2"/><path d="M225.20574,179.64823l36.66639,0.86982" fill="none" stroke="#ffffff" stroke-width="2"/><path d="M270.97743,180.02849c0,0 -0.31029,-0.18185 -0.47234,-0.25897c-0.59371,-0.28204 -1.19205,-0.55858 -1.79559,-0.81908c-0.40879,-0.1763 -0.83139,-0.32171 -1.24237,-0.49213c-0.88418,-0.36663 -1.77161,-0.73267 -2.6465,-1.1202c-0.3977,-0.17637 -0.77496,-0.40069 -1.17441,-0.57301c-0.61288,-0.26448 -1.86356,-0.73819 -1.86356,-0.73819" fill="none" stroke="#ffffff" stroke-width="2"/><path d="M271.23296,180.38125c0,0 -0.07234,0.13074 -0.13594,0.16175c-0.25498,0.12408 -0.52824,0.21016 -0.79928,0.29425c-0.28886,0.08953 -0.5913,0.13674 -0.88016,0.22628c-0.27104,0.08408 -0.5338,0.19445 -0.79928,0.29425c-0.9434,0.35473 -1.90612,0.67005 -2.83148,1.0703c-0.66578,0.28777 -1.27891,0.69155 -1.93841,0.99287c-0.75876,0.34652 -1.54311,0.64007 -2.31697,0.95071c-0.33591,0.135 -1.0161,0.38802 -1.0161,0.38802" fill="none" stroke="#ffffff" stroke-width="2"/><path d="M220.63803,175.39542c0,0 -2.73778,-0.15972 -4.13838,-0.16605c-0.30963,-0.00465 -0.49182,-0.06503 -0.66334,0.1325c-0.56198,0.64438 -1.08713,1.37105 -1.30776,2.21287c-0.30451,1.16822 -0.33246,2.46122 -0.05592,3.67894c0.14164,0.93489 0.83909,1.7076 1.27421,2.58885c0.10848,0.22033 -0.1487,0.13227 0.01291,0.14885c0.62078,0.07185 1.22842,0.03715 1.87991,0.06195c0.92493,0.01338 2.85385,0.05248 2.85385,0.05248" fill="none" stroke="#ffffff" stroke-width="2"/><path d="M215.6836,175.37589c0,0 -2.98177,-0.22827 -4.43315,-0.15231c-0.35611,-0.007 -0.716,-0.08348 -0.94894,0.16119c-0.53842,0.53004 -1.03577,1.14462 -1.24092,1.89138c-0.33157,1.20824 -0.53991,2.50084 -0.3858,3.74306c0.11775,0.91419 0.6244,1.72176 1.18875,2.42264c0.15832,0.26724 0.55214,0.25427 0.84735,0.30536c0.6375,0.11047 1.27876,0.202 1.89569,0.19869c1.11411,0.03222 3.28951,-0.11156 3.28951,-0.11156" fill="none" stroke="#ffffff" stroke-width="2.10527"/><path d="M217.01674,177.73391c0,0 0.02535,-0.07088 0,0c-0.1002,0.28342 -0.23877,0.55667 -0.30113,0.85091c-0.06281,0.29608 -0.06133,0.60367 -0.07141,0.90597c-0.01087,0.32426 -0.00661,0.65021 0.00947,0.97394c0.01727,0.34792 0.00761,0.70357 0.09034,1.04191c0.07447,0.30547 0.23725,0.58468 0.37512,0.86725c0.16598,0.34042 0.53687,1.00319 0.53687,1.00319" fill="none" stroke="#ffffff" stroke-width="2"/></g></g></svg>