<svg version="1.1" xmlns="http://www.w3.org/2000/svg" xmlns:xlink="http://www.w3.org/1999/xlink" width="107.75784" height="142.67213" viewBox="0,0,107.75784,142.67213"><g transform="translate(-186.12108,-108.56245)"><g data-paper-data="{&quot;isPaintingLayer&quot;:true}" fill-rule="nonzero" stroke-linejoin="miter" stroke-miterlimit="10" stroke-dasharray="" stroke-dashoffset="0" style="mix-blend-mode: normal"><path d="M187.12108,250.23458v-140.67213h105.75784v140.67213z" fill="#000000" stroke="#000000" stroke-width="2" stroke-linecap="butt"/><path d="M203.64538,128.79254v-14.16034h72.73263v14.16034z" fill="#000000" stroke="none" stroke-width="0" stroke-linecap="butt"/><path d="M203.15095,245.44269v-14.16034h72.73263v14.16034z" fill="#000000" stroke="none" stroke-width="0" stroke-linecap="butt"/><path d="M221.71877,134.0625h36.15785v11.17558c-1.56205,3.6345 -2.81033,7.71632 -4.0998,11.7841c-1.17249,1.75712 -2.28473,3.61047 -3.37263,5.84436c-2.99406,6.14799 -3.21927,10.02429 -6.52683,15.21112h-6.47683c-3.1074,-6.10004 -7.63532,-15.62593 -11.86074,-21.47909c-0.61882,-2.77515 -1.95614,-5.4579 -3.82102,-7.62885z" fill="#000000" stroke="none" stroke-width="0" stroke-linecap="butt"/><path d="M258.09587,227.32314l-36.14483,-0.94218l0.29987,-10.84906c1.65901,-3.48761 3.01637,-7.41764 4.41451,-11.33298c1.21921,-1.67523 2.38078,-3.44545 3.52823,-5.58572c3.15795,-5.89034 3.48709,-9.64753 6.93263,-14.59662l6.4745,0.16877c2.9426,6.00278 7.21329,15.36835 11.28014,21.1606c0.54414,2.71019 1.80899,5.34941 3.61495,7.50552z" fill="#000000" stroke="none" stroke-width="0" stroke-linecap="butt"/><path d="M274.34546,122.9211l-68.69087,114.1578l68.79672,-0.05224l-68.90257,-114.05332z" fill="none" stroke="#ffffff" stroke-width="2.5" stroke-linecap="round"/><path d="M284.35589,113.68991l-88.71177,132.62019l88.84847,-0.06069l-88.98518,-132.49881z" fill="none" stroke="#ffffff" stroke-width="9" stroke-linecap="round"/><path d="M217.10662,132.49586l45.78681,95.00827l-45.71647,0.04352l45.64613,-95.0953z" fill="none" stroke="#ffffff" stroke-width="6" stroke-linecap="round"/><path d="M284.35589,113.68991l-88.71177,132.62019l88.84847,-0.06069l-88.98518,-132.49881z" fill="none" stroke="#000000" stroke-width="3.5" stroke-linecap="round"/><path d="M217.1066,132.49586l45.78681,95.00827l-45.71647,0.04352l45.64613,-95.0953z" fill="none" stroke="#000000" stroke-width="2" stroke-linecap="round"/></g></g></svg>