<svg version="1.1" xmlns="http://www.w3.org/2000/svg" xmlns:xlink="http://www.w3.org/1999/xlink" width="570" height="430" viewBox="0,0,570,430"><g transform="translate(44.5,32.5)"><g data-paper-data="{&quot;isPaintingLayer&quot;:true}" fill-rule="nonzero" stroke-linecap="butt" stroke-linejoin="miter" stroke-miterlimit="10" stroke-dasharray="" stroke-dashoffset="0" style="mix-blend-mode: normal"><path d="M-43.5,396.5v-428h568v428zM254.82534,120.13184c-0.73136,-1.27988 -5.0239,-1.35312 -6.89799,-1.67414c-7.90516,-1.3541 -15.73021,-2.82884 -23.73062,-3.5949c-2.73897,-0.26226 -5.69814,-0.60557 -8.44672,-0.61281c-10.185,-0.02684 -21.11108,-0.22624 -31.29172,0.07293c-12.41365,0.36479 -35.78159,-1.83241 -39.27059,13.86805c-1.01507,4.5678 1.5601,7.72585 5.27047,9.95611c-0.10934,0.17164 -0.2028,0.35127 -0.27047,0.54389c-0.16218,0.46161 0.67636,1.0993 0.31841,1.43285c-0.58523,0.54535 -1.44025,0.10518 -2.1224,0.16376c-3.83369,0.32922 -7.67117,0.61837 -11.5,1c-2.40134,0.23935 -5.75992,1.26554 -7.60258,1.55015c-4.34556,0.6712 -10.02162,0.06627 -13.65004,3.31276c-0.69821,0.62472 -0.38025,1.8796 -0.88882,2.66645c-0.48051,0.74345 -1.69917,0.93098 -1.9791,1.77077c-0.27993,0.83979 0.57582,1.72057 0.52081,2.60407c-0.055,0.8835 -1.01339,1.65134 -0.83979,2.51937c0.1736,0.86802 1.35959,1.20527 1.74418,2.00257c0.40704,0.84385 -0.06411,2.04961 0.55122,2.75611c4.85471,5.57392 19.20663,4.32976 25.86592,4.75939c29.21838,1.88505 58.58521,1.44692 87.80968,-0.50138l0.28153,-0.09066c3.24984,0.39392 9.87866,-1.467 12.1722,-3.28769c0.55802,-0.44298 0.25079,-1.45599 0.67591,-2.02774c0.39428,-0.53027 1.44048,-0.47274 1.64944,-1.09963c0.34827,-1.04481 -0.32945,-2.2073 -0.18327,-3.29888c0.03282,-0.24505 0.07397,-0.50648 0.1179,-0.7801c0.51565,0.03085 1.03112,0.061 1.5464,0.09044c5.78417,0.33051 11.68846,0.64144 17.42736,1.18498c1.9229,0.18212 6.24064,0.69654 7.64734,-0.91857c1.82097,-2.09074 3.43023,-4.38158 4.80581,-6.78884c0.83451,-1.46038 -1.46582,-4.67957 -1.8408,-5.5224c-1.86304,-4.18748 -1.77296,-4.99753 -6.00385,-6.24457c-0.69375,-0.20448 -8.4243,-1.86415 -8.43768,-1.96176c-0.24613,-1.79547 0.98434,-3.48829 1.47651,-5.23244z" fill="#000000" stroke="#000000" stroke-width="2"/><text transform="translate(75.5,72.75) scale(0.86836,0.86836)" font-size="40" xml:space="preserve" fill="#ffffff" fill-rule="nonzero" stroke="none" stroke-width="1" stroke-linecap="butt" stroke-linejoin="miter" stroke-miterlimit="10" stroke-dasharray="" stroke-dashoffset="0" font-family="Pixel" font-weight="normal" text-anchor="start" style="mix-blend-mode: normal"><tspan x="0" dy="0">GEOMETRY REALM</tspan></text><text transform="translate(175.5,147) scale(0.5,0.5)" font-size="40" xml:space="preserve" fill="#ffffff" fill-rule="nonzero" stroke="none" stroke-width="1" stroke-linecap="butt" stroke-linejoin="miter" stroke-miterlimit="10" stroke-dasharray="" stroke-dashoffset="0" font-family="Pixel" font-weight="normal" text-anchor="start" style="mix-blend-mode: normal"><tspan x="0" dy="0">Nate R</tspan></text><path d="M87.25,199.25v-93h237.5v93z" fill="#000000" stroke="none" stroke-width="0"/><path d="M55.89198,82.10494v-51.51852h368.55556v51.51852z" fill="#000000" stroke="#000000" stroke-width="2"/></g></g></svg>