<svg version="1.1" xmlns="http://www.w3.org/2000/svg" xmlns:xlink="http://www.w3.org/1999/xlink" width="1796.15366" height="621.11591" viewBox="0,0,1796.15366,621.11591"><g transform="translate(631.54787,117.47649)"><g data-paper-data="{&quot;isPaintingLayer&quot;:true}" fill="#000000" fill-rule="nonzero" stroke="none" stroke-width="0.5" stroke-linecap="butt" stroke-linejoin="miter" stroke-miterlimit="10" stroke-dasharray="" stroke-dashoffset="0" style="mix-blend-mode: normal"><path d="M-379.62376,104.49969c-6.03525,-0.63372 -10.95917,-2.09948 -15.64731,-5.94592c-1.84455,-1.51338 -4.66429,-2.43363 -5.39397,-4.70525c-1.39833,-4.35325 -2.63644,-8.75813 -3.80754,-13.17794c-0.61025,-2.30313 0.97487,-4.66534 1.53979,-6.98001c0.61835,-2.53359 1.00499,-5.12254 1.68542,-7.64017c0.06119,-0.2264 0.74425,-0.46702 0.51036,-0.48429c-8.97594,-0.66308 -15.60858,-0.01012 -22.84601,-5.4048c-1.27996,-0.95406 -5.29973,-3.35287 -6.13145,-5.38595c-0.86387,-2.11167 -1.03194,-4.45026 -1.73023,-6.62231c-0.70758,-2.20093 -2.41375,-5.30605 -2.05443,-7.86313c0.54446,-3.87452 1.22303,-7.74672 2.27557,-11.51508c0.2191,-0.78442 2.72203,-3.01686 2.79271,-3.78835c0.14269,-1.55735 -5.61097,-2.85514 -6.37412,-4.94468c-0.39745,-1.08825 -4.99257,-12.37939 -4.66049,-14.22784c0.8345,-4.64504 1.71545,-9.28292 2.70563,-13.89728c0.48488,-2.25959 3.19302,-3.34278 4.83748,-4.96655c1.24604,-1.23037 2.17312,-2.96527 3.7899,-3.63792c24.26206,-10.09402 41.89792,-4.97262 74.09649,-9.13069c1.51987,-0.19627 0.478,-3.24649 1.57093,-4.32075c1.98325,-1.94937 5.82445,-6.23799 8.65909,-7.34554c13.55647,-5.29676 28.47182,-4.76661 42.89615,-5.01188c32.51028,-0.55281 65.02843,-0.7312 97.53183,-1.59888c0.44793,-0.01196 1.31075,-0.9703 0.86637,-1.02786c-7.63875,-0.98951 -8.00524,-0.22066 -12.09353,-0.40105c-37.51431,-1.65528 -76.66761,0.33814 -113.85723,-4.85754c-8.56477,-1.19657 -13.99863,-4.85441 -19.74968,-11.61146c-1.93627,-2.27497 -1.36454,-5.81797 -1.9536,-8.74673c-0.58906,-2.92876 -2.48612,-5.97521 -1.57995,-8.82188c1.07202,-3.3677 2.91323,-6.44082 4.29679,-9.69297c0.22136,-0.52032 0.11488,-1.21642 0.51454,-1.61641c11.06383,-11.07307 32.94277,-18.13439 43.76611,-23.29365c4.77437,-2.27584 9.86311,-3.36901 15.14793,-3.30906c150.26486,1.70455 300.53088,3.30519 450.79612,4.97567c85.29079,0.94817 331.4557,13.37797 449.91321,19.02677c43.91348,2.09407 48.16986,1.60616 84.34641,7.22297c1.40023,0.2174 6.10735,1.42797 7.6285,2.16268c18.93058,9.14334 17.73126,38.44337 -1.88326,46.00897c-1.5646,0.60349 -6.38185,1.43616 -7.77973,1.53198c-14.34651,0.98344 -57.42998,3.12614 -43.05626,2.69517c30.50965,-0.91477 61.03206,-1.76214 91.55522,-1.65007c3.86981,0.01421 9.5405,0.94176 12.5,3.125c2.48332,1.83196 7.57415,4.54625 8.59375,7.42188c0.84846,2.39296 -0.44167,6.63542 1.99432,7.35106c4.30246,1.26396 11.4091,5.67587 12.818,9.91255c0.75936,2.28346 3.64666,11.81856 3.05079,14.65757c-0.38869,1.85193 -3.63127,5.43497 -1.73924,5.40385c26.60336,-0.43763 53.20105,-1.1754 79.79931,-1.8558c8.41846,-0.21535 20.01691,3.5337 22.68915,12.58042c0.66798,2.26141 4.36977,12.08093 3.77918,14.48687c-2.19636,8.94751 -5.16316,14.42768 -12.48006,19.49507c-1.82523,1.26408 -9.04726,3.66428 -10.38886,5.37052c-0.65001,0.82668 -0.07033,2.19768 -0.62209,3.09293c-4.17149,6.76837 -12.37514,11.32933 -20.35843,11.9045c-18.85655,1.35857 -75.43014,2.08522 -56.59475,3.71113c26.82308,2.31542 56.1276,-3.59768 84.02919,-1.38514c5.29386,0.41979 8.72479,2.44048 12.5762,5.58136c1.64096,1.33823 3.31489,2.63595 4.94551,3.98676c0.67209,0.55676 -0.19774,2.51568 0.87779,2.59219c13.24099,0.94197 41.07374,-4.72854 55.03146,6.2642c0.56112,0.44192 5.14914,3.37715 5.79682,5.15273c1.11391,3.05372 4.34597,10.91664 3.6994,14.50745c-0.74067,4.11339 -1.5946,8.21621 -2.74261,12.235c-0.51913,1.81732 -4.88566,5.07293 -5.41376,5.55382c-4.11754,3.74946 -8.94345,6.25162 -14.69846,6.76209c-15.02184,1.33244 -60.00235,1.7246 -45.07599,3.8775c28.81972,4.15681 58.21569,1.53793 87.32574,2.21639c8.86912,0.20671 15.06785,4.35535 21.06129,11.08482c1.97719,2.22001 1.46147,5.76412 2.10772,8.66585c1.62337,7.28908 3.88861,13.33299 -2.84114,20.23109c-15.18241,15.56219 -38.39875,11.91752 -58.37087,12.97988c-71.72213,3.81508 -143.64482,-1.2932 -215.46796,-1.06003c-1.82252,0.00592 2.82555,2.30753 4.15267,3.55667c1.13402,1.06738 1.50913,5.52488 1.6674,5.55347c10.20072,1.84258 20.73991,0.3157 31.07968,1.04987c37.33446,2.65092 74.67584,5.20784 112,8c5.53711,0.41422 12.40697,2.97664 16.35781,6.9138c4.47995,4.46445 7.32804,13.38718 6.79748,19.80384c-0.24093,2.91385 -1.00235,5.76174 -1.58068,8.62777c-0.08979,0.44496 -1.30649,1.04023 -0.85306,1.06147c12.91623,0.60507 26.50085,-3.07299 38.77874,0.98271c1.05571,0.34873 8.34047,2.67934 8.55101,2.86524c1.92835,1.70275 3.26135,4.56047 5.77149,5.12356c12.54,2.81307 23.47402,1.14999 32.71243,9.77567c1.62549,1.51768 4.94228,4.15777 5.67018,6.58167c3.98054,13.2551 0.5198,29.66385 -13.83249,34.67344c-2.00985,0.70153 -6.45703,1.43318 -8.45991,1.51765c-7.74736,0.32672 -30.96633,-0.15708 -23.25378,0.64594c68.82976,7.16642 137.86231,12.23012 206.7829,18.46276c6.07625,0.54949 11.3151,3.37359 15.47753,7.63678c1.53796,1.57519 4.19632,2.57907 4.59469,4.74421c0.5045,2.74197 0.96195,5.49241 1.45553,8.23637c0.38994,2.16778 1.89681,4.43482 1.1499,6.50688c-1.67313,4.64153 -3.35624,9.27952 -5.06202,13.90916c-0.76111,2.06573 -3.55157,2.60244 -5.33521,3.89284c-4.82615,3.49154 -10.4714,5.38597 -16.5516,4.89068c-108.19316,-8.8133 -216.35228,-18.04531 -324.56014,-26.67618c-0.96222,-0.07675 0.64665,1.87124 0.5909,2.8349c-0.17175,2.96878 -0.59669,5.93349 -1.26579,8.83099c-0.16098,0.69712 -0.94103,1.11659 -1.18651,1.78862c-0.46578,1.27513 -0.1659,2.83693 -0.91634,3.9682c-1.12833,1.70092 -3.08128,2.6875 -4.48305,4.17118c-0.52923,0.56016 -1.99381,1.64111 -1.27799,1.92652c7.7114,3.0747 18.24868,1.11372 24.40784,8.34081c0.64099,0.75213 0.69158,1.87497 1.25909,2.68398c1.04061,1.48343 2.75206,2.49899 3.52604,4.13741c0.62435,1.32168 -0.10926,3.0235 0.48713,4.35803c0.03294,0.07371 5.41665,4.99199 5.56046,5.26645c0.89724,1.71242 0.84768,3.78376 1.5132,5.59883c0.44448,1.21224 1.46085,2.18459 1.79773,3.43103c0.83709,3.09725 -0.01131,6.13779 -0.4153,9.16257c-0.25593,1.91622 0.24179,3.92749 -0.26261,5.79377c-1.11005,4.10717 -7.47272,10.15886 -11.22677,12.34192c-1.20128,0.69857 -6.13893,2.30906 -7.07674,2.52968c-9.07448,2.13472 -20.53697,5.57871 -30.89797,6.46606c-33.86342,2.90017 -67.96737,-1.54003 -101.95388,-1.29779c-9.83314,0.07008 -20.95912,2.33843 -31.38623,2.42637c-28.74962,0.24247 -57.60129,-1.78517 -86.24956,0.63889c-2.34477,0.1984 -0.99014,4.62133 -1.84187,6.81493c-1.22142,3.1457 -7.61106,7.54709 -10.95241,8.61024c-7.5247,2.39422 -14.11783,1.9841 -22.14134,1.93663c-1.45057,-0.00858 -5.14947,-0.57087 -5.6202,-0.29475c-1.2013,0.70466 0.91527,2.79706 0.5519,4.14154c-1.14605,4.24039 -2.38178,8.46218 -3.83794,12.60633c-1.83353,5.21809 -12.20068,8.96696 -17.1875,10.15625c-0.92778,0.22126 -2.96889,0.38761 -3.90625,0.39063c-16.24391,0.05218 -32.52565,1.0461 -48.73194,-0.06006c-23.98843,-1.63734 -47.97018,-3.37188 -71.95943,-4.99718c-44.42666,-3.00996 -85.9652,-6.28518 -130.15783,-7.29673c-0.50239,-0.0115 -1.5635,5.81433 -2.05704,6.8071c-0.45596,0.91716 -1.66614,1.22463 -2.32552,2.00841c-0.4428,0.52634 -0.39803,1.39817 -0.9186,1.84775c-4.71354,4.07078 -11.60618,6.66298 -17.84963,6.69072c-87.42303,0.38848 -168.00776,0.87577 -256.6873,-12.27342c-37.95361,-5.62767 -76.55527,-10.81251 -114.40477,-17.10236c-33.57747,-5.57993 -63.60374,-8.42472 -93.69681,-23.40906c-7.93376,-3.95048 -11.69635,-8.98225 -15.12898,-17.47587c-1.10575,-2.73603 0.60103,-5.87199 0.97513,-8.7992c0.94444,-7.38987 0.7726,-13.99482 9.59451,-18.10533c3.20385,-1.49281 8.05103,-3.26794 11.71865,-3.69881c19.2186,-2.2578 38.41499,-4.7021 57.63406,-6.95584c11.27363,-1.32201 34.67447,1.29206 37.21602,1.27376c0.57219,-0.00412 0.15059,-1.56472 -0.41253,-1.66632c-17.75907,-3.20412 -35.70038,-5.30134 -53.53306,-8.06662c-1.60398,-0.24873 -3.19084,-0.65109 -4.72155,-1.19105c-15.79893,-5.57309 -48.52636,-9.79664 -55.28991,-31.0535c-1.25641,-3.94873 -0.31837,-15.38142 -0.26347,-17.47637c0.73657,-28.10764 38.66189,-30.5796 58.2849,-37.44728c1.71727,-0.60101 1.02107,-6.82997 2.13302,-9.54808c1.60797,-3.9306 6.56457,-7.41193 10.14259,-9.4283c0.95953,-0.54074 1.74381,-1.38326 2.74927,-1.83285c0.798,-0.35682 2.3742,0.30934 2.56546,-0.54362c0.34644,-1.54507 0.13064,-3.17109 0.37602,-4.7354c0.3823,-2.43719 1.40401,-5.40105 2.38806,-7.64481c0.51509,-1.17448 3.00192,-3.3868 1.72061,-3.44121c-148.36287,-6.30064 -296.81818,-10.19535 -445.22377,-15.39338c-5.98072,-0.20948 -11.24589,-2.67104 -15.59874,-6.53094c-1.73951,-1.54251 -4.50593,-2.4956 -5.11797,-4.73851c-1.23523,-4.52665 -2.35238,-9.08563 -3.41936,-13.65487c-0.46951,-2.01065 3.46361,-13.1383 3.87112,-14.46258c0.68378,-2.22209 3.47939,-3.08582 5.26756,-4.57165c4.47567,-3.71896 9.81547,-6.00683 15.8005,-6.02645c78.51748,-0.25748 157.07723,1.99946 235.553,-0.57243c27.31051,-0.89505 -54.57048,-2.95397 -81.85386,-4.46476c-33.41953,-1.85057 -67.35785,1.47875 -100.5713,-2.21864c-2.84003,-0.31616 -7.64892,-1.28719 -9.81123,-3.01058c-1.22844,-0.97909 -8.37911,-7.75721 -8.57798,-7.78038c-12.65799,-1.47454 -39.57504,0.42998 -51.83727,-11.09703c-0.80305,-0.7549 -4.85493,-3.85287 -5.38436,-5.78902c-1.07635,-3.93623 -1.82728,-7.9613 -2.45614,-11.99329c-0.36522,-2.34158 1.45596,-5.79928 2.03295,-7.61124c0.71746,-2.25307 0.96841,-4.6516 1.83052,-6.85338c2.34097,-5.97866 14.90688,-10.5825 21.06245,-10.60924c25.74763,-0.11185 51.49553,-0.14725 77.24327,-0.22853c0.87002,-0.00275 1.04697,-4.9775 1.42627,-5.76049c0.47455,-0.97959 1.73688,-1.34377 2.42416,-2.18784c0.45574,-0.55971 0.4082,-1.46514 0.94403,-1.94873c4.51193,-4.07208 11.40841,-6.72224 17.49015,-6.86854c57.67379,-1.38746 115.35342,-2.52033 173.03012,-3.78049z"/></g></g></svg>