<svg version="1.1" xmlns="http://www.w3.org/2000/svg" xmlns:xlink="http://www.w3.org/1999/xlink" width="100.23711" height="138.62787" viewBox="0,0,100.23711,138.62787"><g transform="translate(-189.88144,-110.68607)"><g data-paper-data="{&quot;isPaintingLayer&quot;:true}" fill-rule="nonzero" stroke-linejoin="miter" stroke-miterlimit="10" stroke-dasharray="" stroke-dashoffset="0" style="mix-blend-mode: normal"><path d="M274.34544,122.9211l-68.69087,114.1578l68.79672,-0.05224l-68.90257,-114.05332z" fill="none" stroke="#ffffff" stroke-width="6" stroke-linecap="round"/><path d="M284.35589,113.68991l-88.71177,132.62019l88.84847,-0.06069l-88.98518,-132.49881z" fill="none" stroke="#ffffff" stroke-width="6" stroke-linecap="round"/><path d="M221.71876,134.0625h36.15785v10.79088c-1.56205,3.50939 -2.81033,7.4507 -4.0998,11.37845c-1.17249,1.69663 -2.28473,3.48619 -3.37263,5.64318c-2.99406,5.93636 -3.21927,9.67922 -6.52683,14.6875h-6.47683c-3.1074,-5.89006 -7.63532,-15.08803 -11.86074,-20.73971c-0.61882,-2.67962 -1.95614,-5.27002 -3.82102,-7.36624z" fill="#ff0000" stroke="none" stroke-width="0" stroke-linecap="butt"/><path d="M217.1066,132.49586l45.78681,95.00827l-45.71647,0.04352l45.64613,-95.0953z" fill="none" stroke="#ffffff" stroke-width="6" stroke-linecap="round"/><path d="M284.35589,113.68991l-88.71177,132.62019l88.84847,-0.06069l-88.98518,-132.49881z" fill="none" stroke="#000000" stroke-width="1.5" stroke-linecap="round"/><path d="M274.34543,122.9211l-68.69087,114.1578l68.79672,-0.05224l-68.90257,-114.05332z" fill="none" stroke="#000000" stroke-width="2" stroke-linecap="round"/></g></g></svg>