<svg version="1.1" xmlns="http://www.w3.org/2000/svg" xmlns:xlink="http://www.w3.org/1999/xlink" width="105.86308" height="141.63171" viewBox="0,0,105.86308,141.63171"><g transform="translate(-187.06846,-109.18415)"><g data-paper-data="{&quot;isPaintingLayer&quot;:true}" fill-rule="nonzero" stroke-linejoin="miter" stroke-miterlimit="10" stroke-dasharray="" stroke-dashoffset="0" style="mix-blend-mode: normal"><path d="M221.71877,134.0625h36.15785v11.17558c-1.56205,3.6345 -2.81033,7.71632 -4.0998,11.7841c-1.17249,1.75712 -2.28473,3.61047 -3.37263,5.84436c-2.99406,6.14799 -3.21927,10.02429 -6.52683,15.21112h-6.47683c-3.1074,-6.10004 -7.63532,-15.62593 -11.86074,-21.47909c-0.61882,-2.77515 -1.95614,-5.4579 -3.82102,-7.62885z" fill="#ff0000" stroke="none" stroke-width="0" stroke-linecap="butt"/><path d="M274.34546,122.9211l-68.69087,114.1578l68.79672,-0.05224l-68.90257,-114.05332z" fill="none" stroke="#ffffff" stroke-width="2.5" stroke-linecap="round"/><path d="M284.35589,113.68991l-88.71177,132.62019l88.84847,-0.06069l-88.98518,-132.49881z" fill="none" stroke="#ffffff" stroke-width="9" stroke-linecap="round"/><path d="M217.10662,132.49586l45.78681,95.00827l-45.71647,0.04352l45.64613,-95.0953z" fill="none" stroke="#ffffff" stroke-width="6" stroke-linecap="round"/><path d="M284.35589,113.68991l-88.71177,132.62019l88.84847,-0.06069l-88.98518,-132.49881z" fill="none" stroke="#000000" stroke-width="3.5" stroke-linecap="round"/><path d="M217.1066,132.49586l45.78681,95.00827l-45.71647,0.04352l45.64613,-95.0953z" fill="none" stroke="#000000" stroke-width="2" stroke-linecap="round"/></g></g></svg>