<svg version="1.1" xmlns="http://www.w3.org/2000/svg" xmlns:xlink="http://www.w3.org/1999/xlink" width="150.08538" height="24.25889" viewBox="0,0,150.08538,24.25889"><g transform="translate(-170.79654,-169.56582)"><g data-paper-data="{&quot;isPaintingLayer&quot;:true}" fill-rule="nonzero" stroke-linecap="round" stroke-linejoin="miter" stroke-miterlimit="10" stroke-dasharray="" stroke-dashoffset="0" style="mix-blend-mode: normal"><path d="M175.53404,192.18834c-2.23777,-2.65335 -3.58328,-6.51115 -3.56304,-10.06813c0.01836,-3.02767 1.05142,-6.78925 3.58137,-8.56148c2.29825,-1.60494 5.93014,-0.23036 8.86687,0.05905c2.35132,0.22233 6.27286,-1.00694 7.52718,1.18496c1.57802,2.81332 -0.95068,6.56873 -0.85513,9.8625c0.06832,2.41272 3.48853,5.55753 1.69397,7.06703c-3.08301,2.42907 -7.85286,0.8522 -11.61551,0.94471c-1.88273,0.04613 -4.41742,0.9563 -5.63571,-0.48865z" fill="#ffffff" stroke="none" stroke-width="1"/><path d="M188.20624,191.33525c-2.49616,-2.31732 -3.3632,-6.20888 -3.51082,-9.61433c-0.1178,-2.70163 0.23538,-6.70953 2.73306,-8.01966c4.0773,-2.13348 9.57017,-1.42157 14.24198,-0.53955c1.15336,0.21285 0.06226,2.22056 0.23821,3.39202c0.01315,1.77199 0.0132,3.56413 0.32446,5.43437c0.50566,3.04968 3.01948,6.28483 1.78486,9.12115c-0.95414,2.17998 -4.20809,2.15195 -6.39311,2.10728c-3.26843,0.12259 -7.14881,0.23046 -9.41864,-1.88128z" fill="#ffffff" stroke="none" stroke-width="1"/><path d="M296.10932,191.10929c-3.78906,-1.01913 -10.19103,-1.77295 -10.33078,-5.68661c-0.2578,-5.54002 4.60826,-11.40871 9.70572,-13.70854c3.63865,-1.64202 7.65325,2.67788 11.54018,4.01708c2.29643,0.96991 4.55198,2.05127 7.02224,2.91559c1.65578,0.5822 3.33852,0.77991 5.00047,1.67564c0.46776,0.25349 2.01205,0.68903 0.5823,1.47001c-5.707,3.10862 -11.85585,5.48479 -17.89257,7.85293c-1.73629,0.682 -3.74941,1.94543 -5.62756,1.4639z" fill="#ffffff" stroke="none" stroke-width="1"/><path d="M265.70336,191.84428c-20.1102,0.23585 -40.29888,0.44361 -60.55945,0.60468c-5.07172,0.03011 -3.13466,0.54443 -4.41817,-0.20564c-1.79658,-0.972 -3.16764,-2.75881 -4.02114,-4.78466c-0.97607,-2.2494 -1.31975,-4.83433 -0.95897,-7.35818c0.3164,-2.42124 1.15646,-5.15195 2.91559,-7.02224c1.09008,-1.11208 -0.53466,-0.79161 4.70118,-1.0119c20.59274,-0.52122 41.35366,-0.50191 61.99891,-0.83474c8.68257,-0.14005 17.22015,-0.38423 25.76587,-0.42756c2.20235,-0.13056 2.82114,-0.84132 3.55286,-0.04683c0.70234,0.78131 -0.30015,2.11106 -0.27487,3.17009c0.02655,1.0854 -0.11579,2.29313 0.4296,3.23117c0.5183,0.89026 1.78142,1.08141 2.50431,1.8141c0.76274,0.77235 2.23636,1.63826 1.89961,2.64887c-0.4275,1.26322 -2.50443,1.53525 -3.76665,2.51245c-0.63173,0.4016 -1.63909,0.65779 -1.91386,1.60846c-0.19247,0.85277 0.785,1.59618 1.0343,2.3964c0.34872,1.15166 3.57527,2.99359 1.13406,3.29224c-9.78883,1.24221 -19.96969,0.30979 -30.02319,0.41331z" fill="#ffffff" stroke="#ffffff" stroke-width="2"/><path d="M210.96083,182.6618l86.76916,-2.05839" fill="none" stroke="#ffffff" stroke-width="2"/><path d="M319.27722,181.76192c0,0 -0.73429,0.43033 -1.11777,0.61284c-1.40499,0.66743 -2.82093,1.32185 -4.24918,1.9383c-0.96738,0.41721 -1.96745,0.76132 -2.94001,1.1646c-2.09236,0.8676 -4.19242,1.73383 -6.26281,2.6509c-0.94113,0.41736 -1.8339,0.94822 -2.77917,1.35599c-1.45036,0.62588 -4.41003,1.7469 -4.41003,1.7469" fill="none" stroke="#ffffff" stroke-width="2"/><path d="M319.88192,180.92715c0,0 -0.1712,-0.30939 -0.32169,-0.38277c-0.60339,-0.29363 -1.25005,-0.49734 -1.89146,-0.69633c-0.68358,-0.21187 -1.39927,-0.3236 -2.08285,-0.53547c-0.64141,-0.19898 -1.26322,-0.46015 -1.89146,-0.69632c-2.23251,-0.83945 -4.51074,-1.58563 -6.70055,-2.53281c-1.57553,-0.68099 -3.02648,-1.63651 -4.58716,-2.34958c-1.79557,-0.82002 -3.65168,-1.5147 -5.483,-2.24981c-0.79491,-0.31947 -2.40455,-0.91824 -2.40455,-0.91824" fill="none" stroke="#ffffff" stroke-width="2"/><path d="M200.15159,192.72586c0,0 -6.47881,0.37798 -9.79327,0.39295c-0.73272,0.011 -1.16386,0.15389 -1.56977,-0.31355c-1.32989,-1.52489 -2.57263,-3.24451 -3.09475,-5.23665c-0.72061,-2.76453 -0.78675,-5.82436 -0.13234,-8.70603c0.33519,-2.21236 1.98566,-4.04096 3.01535,-6.12639c0.25672,-0.52141 -0.35188,-0.313 0.03054,-0.35224c1.46904,-0.17002 2.90699,-0.08792 4.44871,-0.14659c2.18881,-0.03167 6.75349,-0.12419 6.75349,-0.12419" fill="none" stroke="#ffffff" stroke-width="2"/><path d="M188.42717,192.77208c0,0 -7.05621,0.5402 -10.49083,0.36043c-0.84271,0.01657 -1.69437,0.19754 -2.24562,-0.38144c-1.27414,-1.25432 -2.45109,-2.70868 -2.93658,-4.47585c-0.78465,-2.85924 -1.27767,-5.9181 -0.91298,-8.85775c0.27864,-2.16339 1.47761,-4.07445 2.81311,-5.73305c0.37465,-0.63242 1.3066,-0.60172 2.0052,-0.72263c1.50862,-0.26141 3.02613,-0.47803 4.48606,-0.47019c2.63648,-0.07625 7.78447,0.264 7.78447,0.264" fill="none" stroke="#ffffff" stroke-width="2.10527"/><path d="M191.58197,187.19195c0,0 0.05998,0.16773 0,0c-0.23711,-0.6707 -0.56503,-1.31734 -0.71261,-2.01363c-0.14863,-0.70065 -0.14514,-1.42856 -0.16899,-2.14393c-0.02573,-0.76735 -0.01564,-1.53869 0.0224,-2.30477c0.04086,-0.82333 0.01802,-1.66496 0.21378,-2.46563c0.17624,-0.72287 0.56144,-1.38361 0.88771,-2.05231c0.39279,-0.80559 1.27047,-2.374 1.27047,-2.374" fill="none" stroke="#ffffff" stroke-width="2"/></g></g></svg>