<svg version="1.1" xmlns="http://www.w3.org/2000/svg" xmlns:xlink="http://www.w3.org/1999/xlink" width="28.95087" height="46.66844" viewBox="0,0,28.95087,46.66844"><g transform="translate(-225.59543,-156.66578)"><g data-paper-data="{&quot;isPaintingLayer&quot;:true}" fill="none" fill-rule="nonzero" stroke="#ff0000" stroke-width="1.5" stroke-linecap="butt" stroke-linejoin="miter" stroke-miterlimit="10" stroke-dasharray="" stroke-dashoffset="0" style="mix-blend-mode: normal"><path d="M231.82432,190.12137c-1.14673,1.14694 -2.48969,2.49022 -4.03236,4.03334c-1.9287,1.9268 -1.9287,5.054 0,6.9823c1.9278,1.9296 5.0541,1.9296 6.9837,0c7.6132,-7.6133 17.5745,-17.575 17.5745,-17.575c1.9282,-1.9278 1.9282,-5.0545 0,-6.9832c0,0 -11.543,-11.5443 -17.7163,-17.7167c-1.9282,-1.9287 -5.0541,-1.9282 -6.9837,0c-1.9286,1.9282 -1.9286,5.0545 0,6.9832c1.79144,1.79133 3.25272,3.25361 4.44003,4.44253l7.90235,9.45843z"/></g></g></svg>